ffmpeg started on 2026-03-26 at 13:45:57
Report written to "D:\Convert\FFMetrics\reports\ssim_report-6.txt"
Log level: 32
Command line:
ffmpeg -hide_banner -nostdin -r 24000/1001 -i "F:\\Convert\\files\\[DC] Make Heroine ga Oosugiru - 07_Telegram_HEVC(154).mkv" -r 24000/1001 -i "F:\\Convert\\files\\[DC] Make Heroine ga Oosugiru - 07_Telegram.mp4" -lavfi "[0:v]settb=AVTB,setpts=PTS-STARTPTS,format=pix_fmts=yuv420p10le,fps=24000/1001,scale=1920:1080:flags=lanczos:param0=3:out_range=limited:out_color_matrix=bt709:out_chroma_loc=left,setsar=1/1,setdar=(1920/1080)*(1/1),colorspace=format=yuv420p10:range=tv:primaries=bt709:trc=bt709:space=bt709:fast=0[main];[1:v]settb=AVTB,setpts=PTS-STARTPTS,format=pix_fmts=yuv420p,fps=24000/1001,scale=1920:1080:flags=lanczos:param0=3:out_range=limited:out_color_matrix=bt709:out_chroma_loc=left,setsar=1/1,setdar=(1920/1080)*(1/1),colorspace=format=yuv420p:range=tv:primaries=bt709:trc=bt709:space=bt709:fast=0[ref];[main][ref]ssim=eof_action=endall:stats_file='D\\:/Convert/FFMetrics/logs/ssim_logfile-6.txt'" -f null -
Input #0, matroska,webm, from 'F:\Convert\files\[DC] Make Heroine ga Oosugiru - 07_Telegram_HEVC(154).mkv':
  Metadata:
    COMPATIBLE_BRANDS: isomiso2avc1mp41
    MAJOR_BRAND     : isom
    MINOR_VERSION   : 512
    ENCODER         : Lavf61.7.100
  Duration: 00:24:06.79, start: -0.021000, bitrate: 982 kb/s
  Stream #0:0: Video: hevc (Main 10), yuv420p10le(tv, bt709, progressive), 1920x1080 [SAR 1:1 DAR 16:9], 23.98 fps, 23.98 tbr, 1k tbn (default)
      Metadata:
        HANDLER_NAME    : VideoHandler
        VENDOR_ID       : [0][0][0][0]
        ENCODER         : Lavc61.19.100 libx265
        BPS             : 785087
        DURATION        : 00:24:06.569708333
        NUMBER_OF_FRAMES: 34683
        NUMBER_OF_BYTES : 141960395
        _STATISTICS_WRITING_APP: mkvpropedit v94.0 ('Initiate') 64-bit
        _STATISTICS_WRITING_DATE_UTC: 2026-03-26 09:57:01
        _STATISTICS_TAGS: BPS DURATION NUMBER_OF_FRAMES NUMBER_OF_BYTES
  Stream #0:1: Audio: aac (LC), 48000 Hz, stereo, fltp (default)
      Metadata:
        HANDLER_NAME    : SoundHandler
        VENDOR_ID       : [0][0][0][0]
        ENCODER         : Lavc61.19.100 aac
        BPS             : 193194
        DURATION        : 00:24:06.784000000
        NUMBER_OF_FRAMES: 67819
        NUMBER_OF_BYTES : 34938755
        _STATISTICS_WRITING_APP: mkvpropedit v94.0 ('Initiate') 64-bit
        _STATISTICS_WRITING_DATE_UTC: 2026-03-26 09:57:01
        _STATISTICS_TAGS: BPS DURATION NUMBER_OF_FRAMES NUMBER_OF_BYTES
Input #1, mov,mp4,m4a,3gp,3g2,mj2, from 'F:\Convert\files\[DC] Make Heroine ga Oosugiru - 07_Telegram.mp4':
  Metadata:
    major_brand     : isom
    minor_version   : 512
    compatible_brands: isomiso2avc1mp41
    encoder         : Lavf60.16.100
  Duration: 00:24:06.74, start: 0.000000, bitrate: 3764 kb/s
  Stream #1:0[0x1](und): Video: h264 (High) (avc1 / 0x31637661), yuv420p(tv, bt709, progressive), 1920x1080 [SAR 1:1 DAR 16:9], 3616 kb/s, 23.98 fps, 23.98 tbr, 24k tbn (default)
      Metadata:
        handler_name    : VideoHandler
        vendor_id       : [0][0][0][0]
        encoder         : Lavc60.31.102 h264_qsv
  Stream #1:1[0x2](und): Audio: aac (HE-AACv2) (mp4a / 0x6134706D), 48000 Hz, stereo, fltp, 144 kb/s (default)
      Metadata:
        handler_name    : SoundHandler
        vendor_id       : [0][0][0][0]
Stream mapping:
  Stream #0:0 (hevc) -> settb:default
  Stream #1:0 (h264) -> settb:default
  ssim:default -> Stream #0:0 (wrapped_avframe)
  Stream #0:1 -> #0:1 (aac (native) -> pcm_s16le (native))
Output #0, null, to 'pipe:':
  Metadata:
    COMPATIBLE_BRANDS: isomiso2avc1mp41
    MAJOR_BRAND     : isom
    MINOR_VERSION   : 512
    encoder         : Lavf61.7.100
  Stream #0:0: Video: wrapped_avframe, yuv420p10le(tv, bt709, progressive), 1920x1080 [SAR 1:1 DAR 16:9], q=2-31, 200 kb/s, 23.98 fps, 23.98 tbn
      Metadata:
        encoder         : Lavc61.19.100 wrapped_avframe
  Stream #0:1: Audio: pcm_s16le, 48000 Hz, stereo, s16, 1536 kb/s (default)
      Metadata:
        HANDLER_NAME    : SoundHandler
        VENDOR_ID       : [0][0][0][0]
        _STATISTICS_TAGS: BPS DURATION NUMBER_OF_FRAMES NUMBER_OF_BYTES
        BPS             : 193194
        DURATION        : 00:24:06.784000000
        NUMBER_OF_FRAMES: 67819
        NUMBER_OF_BYTES : 34938755
        _STATISTICS_WRITING_APP: mkvpropedit v94.0 ('Initiate') 64-bit
        _STATISTICS_WRITING_DATE_UTC: 2026-03-26 09:57:01
        encoder         : Lavc61.19.100 pcm_s16le
frame=  127 fps=0.0 q=-0.0 size=N/A time=00:00:05.29 bitrate=N/A speed=10.3x    frame=  316 fps=310 q=-0.0 size=N/A time=00:00:13.17 bitrate=N/A speed=12.9x    frame=  521 fps=337 q=-0.0 size=N/A time=00:00:21.73 bitrate=N/A speed=14.1x    frame=  715 fps=347 q=-0.0 size=N/A time=00:00:29.82 bitrate=N/A speed=14.5x    frame=  893 fps=348 q=-0.0 size=N/A time=00:00:37.24 bitrate=N/A speed=14.5x    frame= 1047 fps=338 q=-0.0 size=N/A time=00:00:43.66 bitrate=N/A speed=14.1x    frame= 1211 fps=336 q=-0.0 size=N/A time=00:00:50.50 bitrate=N/A speed=  14x    frame= 1373 fps=334 q=-0.0 size=N/A time=00:00:57.26 bitrate=N/A speed=13.9x    frame= 1538 fps=331 q=-0.0 size=N/A time=00:01:04.14 bitrate=N/A speed=13.8x    frame= 1683 fps=327 q=-0.0 size=N/A time=00:01:10.19 bitrate=N/A speed=13.6x    frame= 1856 fps=328 q=-0.0 size=N/A time=00:01:17.41 bitrate=N/A speed=13.7x    frame= 2032 fps=328 q=-0.0 size=N/A time=00:01:24.75 bitrate=N/A speed=13.7x    frame= 2135 fps=319 q=-0.0 size=N/A time=00:01:29.04 bitrate=N/A speed=13.3x    frame= 2288 fps=317 q=-0.0 size=N/A time=00:01:35.42 bitrate=N/A speed=13.2x    frame= 2436 fps=315 q=-0.0 size=N/A time=00:01:41.60 bitrate=N/A speed=13.2x    frame= 2576 fps=312 q=-0.0 size=N/A time=00:01:47.44 bitrate=N/A speed=  13x    frame= 2742 fps=313 q=-0.0 size=N/A time=00:01:54.36 bitrate=N/A speed=13.1x    frame= 2915 fps=314 q=-0.0 size=N/A time=00:02:01.57 bitrate=N/A speed=13.1x    frame= 3103 fps=317 q=-0.0 size=N/A time=00:02:09.42 bitrate=N/A speed=13.2x    frame= 3304 fps=320 q=-0.0 size=N/A time=00:02:17.80 bitrate=N/A speed=13.4x    frame= 3501 fps=323 q=-0.0 size=N/A time=00:02:26.02 bitrate=N/A speed=13.5x    frame= 3694 fps=326 q=-0.0 size=N/A time=00:02:34.07 bitrate=N/A speed=13.6x    frame= 3885 fps=328 q=-0.0 size=N/A time=00:02:42.03 bitrate=N/A speed=13.7x    frame= 4083 fps=330 q=-0.0 size=N/A time=00:02:50.29 bitrate=N/A speed=13.8x    frame= 4278 fps=332 q=-0.0 size=N/A time=00:02:58.42 bitrate=N/A speed=13.8x    frame= 4473 fps=334 q=-0.0 size=N/A time=00:03:06.56 bitrate=N/A speed=13.9x    frame= 4657 fps=335 q=-0.0 size=N/A time=00:03:14.23 bitrate=N/A speed=  14x    frame= 4859 fps=337 q=-0.0 size=N/A time=00:03:22.66 bitrate=N/A speed=  14x    frame= 5050 fps=338 q=-0.0 size=N/A time=00:03:30.62 bitrate=N/A speed=14.1x    frame= 5244 fps=339 q=-0.0 size=N/A time=00:03:38.71 bitrate=N/A speed=14.1x    frame= 5442 fps=340 q=-0.0 size=N/A time=00:03:46.97 bitrate=N/A speed=14.2x    frame= 5634 fps=341 q=-0.0 size=N/A time=00:03:54.98 bitrate=N/A speed=14.2x    frame= 5822 fps=342 q=-0.0 size=N/A time=00:04:02.82 bitrate=N/A speed=14.3x    frame= 6015 fps=343 q=-0.0 size=N/A time=00:04:10.87 bitrate=N/A speed=14.3x    frame= 6215 fps=344 q=-0.0 size=N/A time=00:04:19.21 bitrate=N/A speed=14.4x    frame= 6401 fps=345 q=-0.0 size=N/A time=00:04:26.97 bitrate=N/A speed=14.4x    frame= 6592 fps=346 q=-0.0 size=N/A time=00:04:34.94 bitrate=N/A speed=14.4x    frame= 6784 fps=346 q=-0.0 size=N/A time=00:04:42.94 bitrate=N/A speed=14.4x    frame= 6980 fps=347 q=-0.0 size=N/A time=00:04:51.12 bitrate=N/A speed=14.5x    frame= 7165 fps=347 q=-0.0 size=N/A time=00:04:58.84 bitrate=N/A speed=14.5x    frame= 7354 fps=348 q=-0.0 size=N/A time=00:05:06.72 bitrate=N/A speed=14.5x    frame= 7542 fps=348 q=-0.0 size=N/A time=00:05:14.56 bitrate=N/A speed=14.5x    frame= 7724 fps=348 q=-0.0 size=N/A time=00:05:22.15 bitrate=N/A speed=14.5x    frame= 7914 fps=349 q=-0.0 size=N/A time=00:05:30.07 bitrate=N/A speed=14.6x    frame= 8105 fps=349 q=-0.0 size=N/A time=00:05:38.04 bitrate=N/A speed=14.6x    frame= 8298 fps=350 q=-0.0 size=N/A time=00:05:46.09 bitrate=N/A speed=14.6x    frame= 8485 fps=350 q=-0.0 size=N/A time=00:05:53.89 bitrate=N/A speed=14.6x    frame= 8682 fps=351 q=-0.0 size=N/A time=00:06:02.11 bitrate=N/A speed=14.6x    frame= 8870 fps=351 q=-0.0 size=N/A time=00:06:09.95 bitrate=N/A speed=14.6x    frame= 9061 fps=352 q=-0.0 size=N/A time=00:06:17.91 bitrate=N/A speed=14.7x    frame= 9252 fps=352 q=-0.0 size=N/A time=00:06:25.88 bitrate=N/A speed=14.7x    frame= 9441 fps=352 q=-0.0 size=N/A time=00:06:33.76 bitrate=N/A speed=14.7x    frame= 9637 fps=353 q=-0.0 size=N/A time=00:06:41.94 bitrate=N/A speed=14.7x    frame= 9825 fps=353 q=-0.0 size=N/A time=00:06:49.78 bitrate=N/A speed=14.7x    frame=10018 fps=353 q=-0.0 size=N/A time=00:06:57.83 bitrate=N/A speed=14.7x    frame=10206 fps=354 q=-0.0 size=N/A time=00:07:05.67 bitrate=N/A speed=14.7x    frame=10396 fps=354 q=-0.0 size=N/A time=00:07:13.59 bitrate=N/A speed=14.8x    frame=10582 fps=354 q=-0.0 size=N/A time=00:07:21.35 bitrate=N/A speed=14.8x    frame=10764 fps=354 q=-0.0 size=N/A time=00:07:28.94 bitrate=N/A speed=14.8x    frame=10960 fps=354 q=-0.0 size=N/A time=00:07:37.12 bitrate=N/A speed=14.8x    frame=11145 fps=354 q=-0.0 size=N/A time=00:07:44.83 bitrate=N/A speed=14.8x    frame=11329 fps=354 q=-0.0 size=N/A time=00:07:52.51 bitrate=N/A speed=14.8x    frame=11518 fps=355 q=-0.0 size=N/A time=00:08:00.39 bitrate=N/A speed=14.8x    frame=11710 fps=355 q=-0.0 size=N/A time=00:08:08.40 bitrate=N/A speed=14.8x    frame=11897 fps=355 q=-0.0 size=N/A time=00:08:16.20 bitrate=N/A speed=14.8x    frame=12090 fps=355 q=-0.0 size=N/A time=00:08:24.25 bitrate=N/A speed=14.8x    frame=12281 fps=356 q=-0.0 size=N/A time=00:08:32.22 bitrate=N/A speed=14.8x    frame=12476 fps=356 q=-0.0 size=N/A time=00:08:40.35 bitrate=N/A speed=14.8x    frame=12669 fps=356 q=-0.0 size=N/A time=00:08:48.40 bitrate=N/A speed=14.9x    frame=12865 fps=356 q=-0.0 size=N/A time=00:08:56.57 bitrate=N/A speed=14.9x    frame=13059 fps=357 q=-0.0 size=N/A time=00:09:04.66 bitrate=N/A speed=14.9x    frame=13248 fps=357 q=-0.0 size=N/A time=00:09:12.55 bitrate=N/A speed=14.9x    frame=13431 fps=357 q=-0.0 size=N/A time=00:09:20.18 bitrate=N/A speed=14.9x    frame=13631 fps=357 q=-0.0 size=N/A time=00:09:28.52 bitrate=N/A speed=14.9x    frame=13817 fps=357 q=-0.0 size=N/A time=00:09:36.28 bitrate=N/A speed=14.9x    frame=14009 fps=358 q=-0.0 size=N/A time=00:09:44.29 bitrate=N/A speed=14.9x    frame=14184 fps=357 q=-0.0 size=N/A time=00:09:51.59 bitrate=N/A speed=14.9x    frame=14379 fps=358 q=-0.0 size=N/A time=00:09:59.72 bitrate=N/A speed=14.9x    frame=14566 fps=358 q=-0.0 size=N/A time=00:10:07.52 bitrate=N/A speed=14.9x    frame=14750 fps=358 q=-0.0 size=N/A time=00:10:15.19 bitrate=N/A speed=14.9x    frame=14937 fps=358 q=-0.0 size=N/A time=00:10:22.99 bitrate=N/A speed=14.9x    frame=15115 fps=358 q=-0.0 size=N/A time=00:10:30.42 bitrate=N/A speed=14.9x    frame=15290 fps=357 q=-0.0 size=N/A time=00:10:37.72 bitrate=N/A speed=14.9x    frame=15478 fps=357 q=-0.0 size=N/A time=00:10:45.56 bitrate=N/A speed=14.9x    frame=15674 fps=358 q=-0.0 size=N/A time=00:10:53.73 bitrate=N/A speed=14.9x    frame=15865 fps=358 q=-0.0 size=N/A time=00:11:01.70 bitrate=N/A speed=14.9x    frame=16057 fps=358 q=-0.0 size=N/A time=00:11:09.71 bitrate=N/A speed=14.9x    frame=16251 fps=358 q=-0.0 size=N/A time=00:11:17.80 bitrate=N/A speed=14.9x    frame=16443 fps=358 q=-0.0 size=N/A time=00:11:25.81 bitrate=N/A speed=14.9x    frame=16633 fps=358 q=-0.0 size=N/A time=00:11:33.73 bitrate=N/A speed=14.9x    frame=16813 fps=358 q=-0.0 size=N/A time=00:11:41.24 bitrate=N/A speed=14.9x    frame=17009 fps=359 q=-0.0 size=N/A time=00:11:49.41 bitrate=N/A speed=  15x    frame=17209 fps=359 q=-0.0 size=N/A time=00:11:57.75 bitrate=N/A speed=  15x    frame=17399 fps=359 q=-0.0 size=N/A time=00:12:05.68 bitrate=N/A speed=  15x    frame=17581 fps=359 q=-0.0 size=N/A time=00:12:13.27 bitrate=N/A speed=  15x    frame=17780 fps=359 q=-0.0 size=N/A time=00:12:21.57 bitrate=N/A speed=  15x    frame=17970 fps=359 q=-0.0 size=N/A time=00:12:29.49 bitrate=N/A speed=  15x    frame=18166 fps=360 q=-0.0 size=N/A time=00:12:37.67 bitrate=N/A speed=  15x    frame=18346 fps=359 q=-0.0 size=N/A time=00:12:45.18 bitrate=N/A speed=  15x    frame=18537 fps=359 q=-0.0 size=N/A time=00:12:53.14 bitrate=N/A speed=  15x    frame=18737 fps=360 q=-0.0 size=N/A time=00:13:01.48 bitrate=N/A speed=  15x    frame=18925 fps=360 q=-0.0 size=N/A time=00:13:09.33 bitrate=N/A speed=  15x    frame=19121 fps=360 q=-0.0 size=N/A time=00:13:17.50 bitrate=N/A speed=  15x    frame=19322 fps=360 q=-0.0 size=N/A time=00:13:25.88 bitrate=N/A speed=  15x    frame=19519 fps=360 q=-0.0 size=N/A time=00:13:34.10 bitrate=N/A speed=  15x    frame=19706 fps=360 q=-0.0 size=N/A time=00:13:41.90 bitrate=N/A speed=  15x    frame=19901 fps=361 q=-0.0 size=N/A time=00:13:50.03 bitrate=N/A speed=  15x    frame=20099 fps=361 q=-0.0 size=N/A time=00:13:58.29 bitrate=N/A speed=  15x    frame=20288 fps=361 q=-0.0 size=N/A time=00:14:06.17 bitrate=N/A speed=15.1x    frame=20480 fps=361 q=-0.0 size=N/A time=00:14:14.18 bitrate=N/A speed=15.1x    frame=20650 fps=361 q=-0.0 size=N/A time=00:14:21.27 bitrate=N/A speed=  15x    frame=20852 fps=361 q=-0.0 size=N/A time=00:14:29.70 bitrate=N/A speed=15.1x    frame=21046 fps=361 q=-0.0 size=N/A time=00:14:37.79 bitrate=N/A speed=15.1x    frame=21234 fps=361 q=-0.0 size=N/A time=00:14:45.63 bitrate=N/A speed=15.1x    frame=21423 fps=361 q=-0.0 size=N/A time=00:14:53.51 bitrate=N/A speed=15.1x    frame=21616 fps=361 q=-0.0 size=N/A time=00:15:01.56 bitrate=N/A speed=15.1x    frame=21803 fps=361 q=-0.0 size=N/A time=00:15:09.36 bitrate=N/A speed=15.1x    frame=21998 fps=361 q=-0.0 size=N/A time=00:15:17.49 bitrate=N/A speed=15.1x    frame=22188 fps=362 q=-0.0 size=N/A time=00:15:25.42 bitrate=N/A speed=15.1x    frame=22385 fps=362 q=-0.0 size=N/A time=00:15:33.64 bitrate=N/A speed=15.1x    frame=22583 fps=362 q=-0.0 size=N/A time=00:15:41.89 bitrate=N/A speed=15.1x    frame=22770 fps=362 q=-0.0 size=N/A time=00:15:49.69 bitrate=N/A speed=15.1x    frame=22947 fps=362 q=-0.0 size=N/A time=00:15:57.08 bitrate=N/A speed=15.1x    frame=23138 fps=362 q=-0.0 size=N/A time=00:16:05.04 bitrate=N/A speed=15.1x    frame=23328 fps=362 q=-0.0 size=N/A time=00:16:12.97 bitrate=N/A speed=15.1x    frame=23520 fps=362 q=-0.0 size=N/A time=00:16:20.98 bitrate=N/A speed=15.1x    frame=23715 fps=362 q=-0.0 size=N/A time=00:16:29.11 bitrate=N/A speed=15.1x    frame=23908 fps=362 q=-0.0 size=N/A time=00:16:37.16 bitrate=N/A speed=15.1x    frame=24102 fps=362 q=-0.0 size=N/A time=00:16:45.25 bitrate=N/A speed=15.1x    frame=24288 fps=362 q=-0.0 size=N/A time=00:16:53.01 bitrate=N/A speed=15.1x    frame=24485 fps=362 q=-0.0 size=N/A time=00:17:01.22 bitrate=N/A speed=15.1x    frame=24678 fps=362 q=-0.0 size=N/A time=00:17:09.27 bitrate=N/A speed=15.1x    frame=24880 fps=363 q=-0.0 size=N/A time=00:17:17.70 bitrate=N/A speed=15.1x    frame=25068 fps=363 q=-0.0 size=N/A time=00:17:25.54 bitrate=N/A speed=15.1x    frame=25266 fps=363 q=-0.0 size=N/A time=00:17:33.80 bitrate=N/A speed=15.1x    frame=25457 fps=363 q=-0.0 size=N/A time=00:17:41.76 bitrate=N/A speed=15.1x    frame=25644 fps=363 q=-0.0 size=N/A time=00:17:49.56 bitrate=N/A speed=15.1x    frame=25841 fps=363 q=-0.0 size=N/A time=00:17:57.78 bitrate=N/A speed=15.1x    frame=26034 fps=363 q=-0.0 size=N/A time=00:18:05.83 bitrate=N/A speed=15.1x    frame=26228 fps=363 q=-0.0 size=N/A time=00:18:13.92 bitrate=N/A speed=15.2x    frame=26426 fps=363 q=-0.0 size=N/A time=00:18:22.18 bitrate=N/A speed=15.2x    frame=26625 fps=363 q=-0.0 size=N/A time=00:18:30.48 bitrate=N/A speed=15.2x    frame=26815 fps=364 q=-0.0 size=N/A time=00:18:38.40 bitrate=N/A speed=15.2x    frame=26988 fps=363 q=-0.0 size=N/A time=00:18:45.62 bitrate=N/A speed=15.2x    frame=27175 fps=363 q=-0.0 size=N/A time=00:18:53.42 bitrate=N/A speed=15.2x    frame=27361 fps=363 q=-0.0 size=N/A time=00:19:01.18 bitrate=N/A speed=15.2x    frame=27541 fps=363 q=-0.0 size=N/A time=00:19:08.68 bitrate=N/A speed=15.1x    frame=27734 fps=363 q=-0.0 size=N/A time=00:19:16.73 bitrate=N/A speed=15.2x    frame=27924 fps=363 q=-0.0 size=N/A time=00:19:24.66 bitrate=N/A speed=15.2x    frame=28115 fps=363 q=-0.0 size=N/A time=00:19:32.62 bitrate=N/A speed=15.2x    frame=28302 fps=363 q=-0.0 size=N/A time=00:19:40.42 bitrate=N/A speed=15.2x    frame=28492 fps=363 q=-0.0 size=N/A time=00:19:48.35 bitrate=N/A speed=15.2x    frame=28689 fps=364 q=-0.0 size=N/A time=00:19:56.57 bitrate=N/A speed=15.2x    frame=28858 fps=363 q=-0.0 size=N/A time=00:20:03.61 bitrate=N/A speed=15.2x    frame=29029 fps=363 q=-0.0 size=N/A time=00:20:10.75 bitrate=N/A speed=15.1x    frame=29211 fps=363 q=-0.0 size=N/A time=00:20:18.34 bitrate=N/A speed=15.1x    frame=29392 fps=363 q=-0.0 size=N/A time=00:20:25.89 bitrate=N/A speed=15.1x    frame=29564 fps=363 q=-0.0 size=N/A time=00:20:33.06 bitrate=N/A speed=15.1x    frame=29733 fps=363 q=-0.0 size=N/A time=00:20:40.11 bitrate=N/A speed=15.1x    frame=29918 fps=363 q=-0.0 size=N/A time=00:20:47.82 bitrate=N/A speed=15.1x    frame=30084 fps=362 q=-0.0 size=N/A time=00:20:54.75 bitrate=N/A speed=15.1x    frame=30269 fps=362 q=-0.0 size=N/A time=00:21:02.46 bitrate=N/A speed=15.1x    frame=30464 fps=362 q=-0.0 size=N/A time=00:21:10.60 bitrate=N/A speed=15.1x    frame=30658 fps=362 q=-0.0 size=N/A time=00:21:18.69 bitrate=N/A speed=15.1x    frame=30850 fps=363 q=-0.0 size=N/A time=00:21:26.70 bitrate=N/A speed=15.1x    frame=31037 fps=362 q=-0.0 size=N/A time=00:21:34.50 bitrate=N/A speed=15.1x    frame=31226 fps=363 q=-0.0 size=N/A time=00:21:42.38 bitrate=N/A speed=15.1x    frame=31408 fps=362 q=-0.0 size=N/A time=00:21:49.97 bitrate=N/A speed=15.1x    frame=31597 fps=363 q=-0.0 size=N/A time=00:21:57.85 bitrate=N/A speed=15.1x    frame=31781 fps=362 q=-0.0 size=N/A time=00:22:05.53 bitrate=N/A speed=15.1x    frame=31958 fps=362 q=-0.0 size=N/A time=00:22:12.91 bitrate=N/A speed=15.1x    frame=32146 fps=362 q=-0.0 size=N/A time=00:22:20.75 bitrate=N/A speed=15.1x    frame=32345 fps=362 q=-0.0 size=N/A time=00:22:29.05 bitrate=N/A speed=15.1x    frame=32535 fps=363 q=-0.0 size=N/A time=00:22:36.98 bitrate=N/A speed=15.1x    frame=32692 fps=362 q=-0.0 size=N/A time=00:22:43.52 bitrate=N/A speed=15.1x    frame=32847 fps=362 q=-0.0 size=N/A time=00:22:49.99 bitrate=N/A speed=15.1x    frame=33036 fps=362 q=-0.0 size=N/A time=00:22:57.87 bitrate=N/A speed=15.1x    frame=33209 fps=362 q=-0.0 size=N/A time=00:23:05.09 bitrate=N/A speed=15.1x    frame=33392 fps=362 q=-0.0 size=N/A time=00:23:12.72 bitrate=N/A speed=15.1x    frame=33547 fps=361 q=-0.0 size=N/A time=00:23:19.18 bitrate=N/A speed=15.1x    frame=33701 fps=361 q=-0.0 size=N/A time=00:23:25.61 bitrate=N/A speed=15.1x    frame=33830 fps=360 q=-0.0 size=N/A time=00:23:30.99 bitrate=N/A speed=  15x    frame=33977 fps=360 q=-0.0 size=N/A time=00:23:37.12 bitrate=N/A speed=  15x    frame=34148 fps=360 q=-0.0 size=N/A time=00:23:44.25 bitrate=N/A speed=  15x    frame=34308 fps=359 q=-0.0 size=N/A time=00:23:50.92 bitrate=N/A speed=  15x    frame=34439 fps=359 q=-0.0 size=N/A time=00:23:56.39 bitrate=N/A speed=  15x    frame=34613 fps=359 q=-0.0 size=N/A time=00:24:03.65 bitrate=N/A speed=  15x    [Parsed_ssim_16 @ 000001fdd4079540] SSIM Y:0.994166 (22.340625) U:0.993981 (22.205089) V:0.993591 (21.931881) All:0.994040 (22.247257)
[out#0/null @ 000001fdcc542fc0] video:14903KiB audio:271276KiB subtitle:0KiB other streams:0KiB global headers:0KiB muxing overhead: unknown
frame=34683 fps=359 q=-0.0 Lsize=N/A time=00:24:06.57 bitrate=N/A speed=  15x    
